<?xml version="1.0" encoding="UTF-8" standalone="no"?>
<svg width="70px" height="64px" viewBox="0 0 70 64" version="1.1" xmlns="http://www.w3.org/2000/svg" xmlns:xlink="http://www.w3.org/1999/xlink" xmlns:sketch="http://www.bohemiancoding.com/sketch/ns">
    <!-- Generator: Sketch 3.4.4 (17249) - http://www.bohemiancoding.com/sketch -->
    <title>icon-mb</title>
    <desc>Created with Sketch.</desc>
    <defs>
        <linearGradient x1="56.6197917%" y1="77.1484375%" x2="6.8944317%" y2="1.40993936%" id="linearGradient-1">
            <stop stop-color="#94A1B7" offset="0%"></stop>
            <stop stop-color="#B9C5D4" offset="100%"></stop>
        </linearGradient>
    </defs>
    <g id="Website" stroke="none" stroke-width="1" fill="none" fill-rule="evenodd" sketch:type="MSPage">
        <g id="Homepage-Copy-3" sketch:type="MSArtboardGroup" transform="translate(-64.000000, -1740.000000)" stroke="#333740" fill="url(#linearGradient-1)">
            <g id="features" sketch:type="MSLayerGroup" transform="translate(-25.000000, 1588.000000)">
                <g id="Multiple-Backups.-+-Automatically-create-+-Fill-1" transform="translate(90.000000, 153.000000)" sketch:type="MSShapeGroup">
                    <path d="M37.5129366,0.388613697 C22.4024074,0.388613697 9.81813164,11.3874023 7.32477215,25.7968209 L4.0250416,22.4961506 C3.10307188,21.5751207 1.61250718,21.5751207 0.691477288,22.4961506 C-0.230492429,23.4171804 -0.230492429,24.9077451 0.691477288,25.8297149 L7.55221015,32.6913875 C7.55221015,32.6913875 7.55596945,32.6951468 7.55596945,32.6979663 C7.60765991,32.7496568 7.66968845,32.7900693 7.72513821,32.8342412 C7.78716675,32.8859316 7.84261651,32.9404415 7.91216366,32.9846134 C8.00050735,33.0438225 8.09636964,33.0879943 8.18753281,33.1349856 C8.23170465,33.1575414 8.27211718,33.1829168 8.31628903,33.2017133 C8.43000802,33.2487046 8.54748632,33.2825384 8.66496463,33.3079137 C8.69409925,33.3154323 8.72417369,33.3295297 8.75706762,33.333289 C8.91119915,33.3661829 9.06908999,33.3812201 9.22698083,33.3812201 C9.38487166,33.3812201 9.5427625,33.3624236 9.69689403,33.333289 C9.72602865,33.3257704 9.75516327,33.3154323 9.78429789,33.3079137 C9.90177619,33.2787791 10.0192545,33.2449453 10.1339133,33.197954 C10.1771453,33.1791575 10.2137986,33.1537821 10.2579704,33.1312263 C10.3538327,33.0879943 10.4487552,33.0400631 10.5370989,32.9808541 C10.6000672,32.9366822 10.6583365,32.8859316 10.7175455,32.8342412 C10.7758148,32.78631 10.8387831,32.7458975 10.8895338,32.6913875 L17.7549658,25.8259556 C18.6759956,24.9039858 18.6759956,23.414361 17.7549658,22.4923912 C16.832996,21.5713614 15.3424313,21.5713614 14.4214014,22.4923912 L12.4092331,24.5045596 C15.3095374,13.354459 25.4606026,5.09808388 37.5063578,5.09808388 C51.8011176,5.09808388 63.4352288,16.7284358 63.4352288,31.0278948 C63.4352288,45.3235944 51.8123955,56.961465 37.5129366,56.961465 C28.4896631,56.961465 20.254904,52.3798112 15.4787062,44.7070683 C14.7926329,43.6018324 13.3387214,43.2644348 12.2334855,43.950508 C11.1282497,44.6403406 10.790852,46.0904928 11.4769253,47.1957287 C17.1158838,56.2603545 26.8524855,61.671875 37.5129366,61.671875 C54.4081961,61.671875 68.1569168,47.9269136 68.1569168,31.0278948 C68.1569168,14.1363946 54.4119554,0.388613697 37.5129366,0.388613697 Z M47.2232231,28.6745694 L39.8700212,28.6745694 L39.8625026,14.5330013 C39.8625026,13.2332214 38.8051979,12.1768565 37.5063578,12.1768565 C36.2028185,12.1768565 35.1492731,13.2332214 35.1492731,14.5330013 L35.1596112,31.0354134 C35.1596112,32.3389526 36.2169159,33.3924981 37.5166959,33.3924981 C37.5683863,33.3924981 37.6125582,33.3812201 37.6633088,33.3774608 C37.7074806,33.3812201 37.7516525,33.3924981 37.7958243,33.3924981 L47.2232231,33.3924981 C48.5267624,33.3924981 49.5803078,32.3389526 49.5803078,31.0354134 C49.5803078,29.7318742 48.5230031,28.6745694 47.2232231,28.6745694 Z" id="icon-mb"></path>
                </g>
            </g>
        </g>
    </g>
</svg>