<?xml version="1.0" encoding="UTF-8" standalone="no"?>
<svg width="64px" height="64px" viewBox="0 0 64 64" version="1.1" xmlns="http://www.w3.org/2000/svg" xmlns:xlink="http://www.w3.org/1999/xlink" xmlns:sketch="http://www.bohemiancoding.com/sketch/ns">
    <!-- Generator: Sketch 3.4.4 (17249) - http://www.bohemiancoding.com/sketch -->
    <title>icon-sf</title>
    <desc>Created with Sketch.</desc>
    <defs>
        <linearGradient x1="56.6197917%" y1="77.1484375%" x2="5.96875%" y2="0%" id="linearGradient-1">
            <stop stop-color="#B0BCCD" offset="0%"></stop>
            <stop stop-color="#94A1B7" offset="100%"></stop>
        </linearGradient>
        <linearGradient x1="56.6197917%" y1="77.1484375%" x2="6.8944317%" y2="1.40993936%" id="linearGradient-2">
            <stop stop-color="#94A1B7" offset="0%"></stop>
            <stop stop-color="#B9C5D4" offset="100%"></stop>
        </linearGradient>
    </defs>
    <g id="Website" stroke="none" stroke-width="1" fill="none" fill-rule="evenodd" sketch:type="MSPage">
        <g id="Homepage-Copy-3" sketch:type="MSArtboardGroup" transform="translate(-708.000000, -1267.000000)">
            <g id="Benefits" sketch:type="MSLayerGroup" transform="translate(63.000000, 1266.000000)">
                <g id="Shackle-Free.-+-We-don’t-force-you-t-+-Page-1" transform="translate(644.000000, 2.000000)" sketch:type="MSShapeGroup">
                    <g id="icon-sf" transform="translate(2.234375, 0.000000)">
                        <path d="M56.8810985,61.6080596 L4.88452647,61.6080596 C2.28028603,61.6080596 0.15756537,59.485339 0.15756537,56.8810985 L0.15756537,4.88452647 C0.15756537,2.28028603 2.28028603,0.15756537 4.88452647,0.15756537 L56.8810985,0.15756537 C59.485339,0.15756537 61.6080596,2.28028603 61.6080596,4.88452647 L61.6080596,56.8810985 C61.6080596,59.485339 59.485339,61.6080596 56.8810985,61.6080596 L56.8810985,61.6080596 Z M4.88452647,4.88452647 L4.88452647,56.8810985 L56.8861406,56.8810985 L56.8810985,4.88452647 L4.88452647,4.88452647 Z" id="Fill-1" stroke="#F6F6F6" stroke-width="2" fill="url(#linearGradient-1)"></path>
                        <path d="M3.70341645,11.9749681 L59.2445791,11.9749681 L59.2445791,14.9749681 L3.70341645,14.9749681 L3.70341645,11.9749681 Z" id="Fill-2" fill="#A4B0C3"></path>
                        <path d="M11.9749681,24.9734809 L17.8842997,24.9734809 L17.8842997,29.700442 L11.9749681,29.700442 L11.9749681,24.9734809 Z" id="Fill-3" opacity="0.5" fill="url(#linearGradient-2)"></path>
                        <path d="M22.6112608,24.9734809 L28.5205925,24.9734809 L28.5205925,29.700442 L22.6112608,29.700442 L22.6112608,24.9734809 Z" id="Fill-4" opacity="0.5" fill="url(#linearGradient-2)"></path>
                        <path d="M11.9749681,34.4274031 L17.8842997,34.4274031 L17.8842997,39.1543642 L11.9749681,39.1543642 L11.9749681,34.4274031 Z" id="Fill-5" opacity="0.5" fill="url(#linearGradient-2)"></path>
                        <path d="M22.6112608,34.4274031 L28.5205925,34.4274031 L28.5205925,39.1543642 L22.6112608,39.1543642 L22.6112608,34.4274031 Z" id="Fill-6" opacity="0.5" fill="url(#linearGradient-2)"></path>
                        <path d="M11.9749681,43.8813253 L17.8842997,43.8813253 L17.8842997,48.6082864 L11.9749681,48.6082864 L11.9749681,43.8813253 Z" id="Fill-7" opacity="0.5" fill="url(#linearGradient-2)"></path>
                        <path d="M22.6112608,43.8813253 L28.5205925,43.8813253 L28.5205925,48.6082864 L22.6112608,48.6082864 L22.6112608,43.8813253 Z" id="Fill-8" opacity="0.5" fill="url(#linearGradient-2)"></path>
                        <path d="M33.246293,43.8813253 L39.1556247,43.8813253 L39.1556247,48.6082864 L33.246293,48.6082864 L33.246293,43.8813253 Z" id="Fill-9" opacity="0.5" fill="url(#linearGradient-2)"></path>
                        <path d="M43.8813253,43.8813253 L49.7906569,43.8813253 L49.7906569,48.6082864 L43.8813253,48.6082864 L43.8813253,43.8813253 Z" id="Fill-10" opacity="0.5" fill="url(#linearGradient-2)"></path>
                        <path d="M37.854765,38.9526805 L31.5773607,32.6702341 L34.9152254,29.3323693 L37.854765,32.2668667 L46.939354,23.1873198 L50.2784793,26.5251846 L37.854765,38.9526805 Z" id="Fill-11" fill="url(#linearGradient-2)"></path>
                    </g>
                </g>
            </g>
        </g>
    </g>
</svg>