<?xml version="1.0" encoding="UTF-8" standalone="no"?>
<svg width="57px" height="66px" viewBox="0 0 57 66" version="1.1" xmlns="http://www.w3.org/2000/svg" xmlns:xlink="http://www.w3.org/1999/xlink" xmlns:sketch="http://www.bohemiancoding.com/sketch/ns">
    <!-- Generator: Sketch 3.4.4 (17249) - http://www.bohemiancoding.com/sketch -->
    <title>icon-ts</title>
    <desc>Created with Sketch.</desc>
    <defs>
        <linearGradient x1="56.6197917%" y1="77.1484375%" x2="6.8944317%" y2="1.40993936%" id="linearGradient-1">
            <stop stop-color="#94A1B7" offset="0%"></stop>
            <stop stop-color="#B9C5D4" offset="100%"></stop>
        </linearGradient>
    </defs>
    <g id="Website" stroke="none" stroke-width="1" fill="none" fill-rule="evenodd" sketch:type="MSPage">
        <g id="Homepage-Copy-3" sketch:type="MSArtboardGroup" transform="translate(-381.000000, -1266.000000)" fill="url(#linearGradient-1)">
            <g id="Benefits" sketch:type="MSLayerGroup" transform="translate(63.000000, 1266.000000)">
                <g id="Time-Saviour.-+-How-much-of-your-tim-+-Page-1-+-Page-1-+-Page-1" transform="translate(317.000000, 0.000000)" sketch:type="MSShapeGroup">
                    <path d="M50.039,18.742 C54.508,23.722 57.25,30.281 57.25,37.5 C57.25,53.031 44.656,65.624 29.125,65.624 C13.594,65.624 1,53.031 1,37.5 C1,23.566 11.141,12.031 24.437,9.796 L24.437,3.124 L21.313,3.124 C20.449,3.124 19.75,2.425 19.75,1.562 C19.75,0.699 20.449,0 21.313,0 L36.937,0 C37.801,0 38.5,0.699 38.5,1.562 C38.5,2.425 37.801,3.124 36.937,3.124 L33.813,3.124 L33.813,9.789 C39.168,10.695 44.008,13.109 47.883,16.585 L51.523,12.945 C52.117,12.351 53.086,12.351 53.68,12.945 C54.273,13.539 54.273,14.507 53.68,15.101 L50.039,18.742 Z M30.687,3.124 L27.563,3.124 L27.563,9.453 C28.082,9.425 28.598,9.374 29.125,9.374 C29.652,9.374 30.168,9.421 30.687,9.449 L30.687,3.124 Z M29.125,12.5 C15.32,12.5 4.125,23.691 4.125,37.5 C4.125,51.308 15.32,62.5 29.125,62.5 C42.934,62.5 54.125,51.308 54.125,37.5 C54.125,23.695 42.934,12.5 29.125,12.5 L29.125,12.5 Z M29.125,43.75 C25.672,43.75 22.875,40.953 22.875,37.5 C22.875,36.328 23.219,35.246 23.777,34.312 L15.508,26.042 C14.914,25.449 14.914,24.48 15.508,23.886 C16.105,23.292 17.07,23.292 17.664,23.886 L25.934,32.156 C26.875,31.593 27.953,31.25 29.125,31.25 C32.578,31.25 35.375,34.046 35.375,37.5 C35.375,40.953 32.578,43.75 29.125,43.75 L29.125,43.75 Z M29.125,34.374 C27.398,34.374 26,35.773 26,37.5 C26,39.226 27.398,40.624 29.125,40.624 C30.852,40.624 32.25,39.226 32.25,37.5 C32.25,35.773 30.852,34.374 29.125,34.374 L29.125,34.374 Z" id="icon-ts"></path>
                </g>
            </g>
        </g>
    </g>
</svg>