<?xml version="1.0" encoding="UTF-8" standalone="no"?>
<svg width="89px" height="66px" viewBox="0 0 89 66" version="1.1" xmlns="http://www.w3.org/2000/svg" xmlns:xlink="http://www.w3.org/1999/xlink" xmlns:sketch="http://www.bohemiancoding.com/sketch/ns">
    <!-- Generator: Sketch 3.4.4 (17249) - http://www.bohemiancoding.com/sketch -->
    <title>icon-pom</title>
    <desc>Created with Sketch.</desc>
    <defs>
        <linearGradient x1="56.6197917%" y1="77.1484375%" x2="6.8944317%" y2="1.40993936%" id="linearGradient-1">
            <stop stop-color="#94A1B7" offset="0%"></stop>
            <stop stop-color="#B9C5D4" offset="100%"></stop>
        </linearGradient>
    </defs>
    <g id="Website" stroke="none" stroke-width="1" fill="none" fill-rule="evenodd" sketch:type="MSPage">
        <g id="Homepage-Copy-3" sketch:type="MSArtboardGroup" transform="translate(-63.000000, -1266.000000)" stroke-width="1.1" stroke="#F6F6F6" fill="url(#linearGradient-1)">
            <g id="Benefits" sketch:type="MSLayerGroup" transform="translate(63.000000, 1266.000000)">
                <g id="Peace-Of-Mind.-+-Ever-lost-a-shot-due-+-Page-1" sketch:type="MSShapeGroup">
                    <path d="M86.8525313,34.2642428 C83.5748907,32.6924455 79.8432234,31.8406049 75.9839962,31.6806145 C77.0131234,25.0756066 76.2110095,18.4295201 73.4911732,12.7541859 C73.0609288,11.8504565 72.124769,11.3185966 71.1107759,11.3769715 C66.4321386,11.7315448 61.8291723,13.2946939 57.6305061,15.794003 C55.0295815,9.71220682 50.9606372,4.5103577 45.7998667,0.979759358 C44.9718084,0.415468991 43.8821442,0.415468991 43.054086,0.979759358 C37.8954775,4.5103577 33.8243711,9.72085495 31.2234466,15.8026511 C27.0247803,13.3033421 22.4218141,11.7315448 17.7518248,11.3769715 C16.7464799,11.3013004 15.8103201,11.8418084 15.3714275,12.7541859 C12.6515912,18.4295201 11.8494773,25.0756066 12.8786046,31.6806145 C9.01937737,31.8406049 5.27906192,32.7010937 2.01006945,34.272891 C1.10634005,34.7031353 0.557183912,35.6501054 0.632855034,36.6532883 C1.3592978,46.1294747 7.51676509,55.3094628 16.6967532,60.6129275 C21.8899542,63.6116659 27.6582557,65.1985975 33.3768305,65.1985975 C37.2706502,65.1985975 41.0455582,64.4051317 44.4226523,62.9695424 C47.7932602,64.4051317 51.5768163,65.1985975 55.468474,65.1985975 C61.1870488,65.1985975 66.9553503,63.6116659 72.1485513,60.6129275 C81.3285394,55.3094628 87.4946548,46.1294747 88.2124495,36.6532883 C88.3054169,35.6414572 87.7562607,34.7031353 86.8525313,34.2642428 L86.8525313,34.2642428 Z M69.7854503,16.4188303 C72.8836422,24.3059232 71.9128898,34.1042525 67.1153407,42.4129416 C63.6863579,48.3585298 58.6120686,52.9377137 52.9367345,55.5559345 C57.9440007,49.0936207 60.8584199,40.5989967 60.8584199,31.6719664 C60.8584199,27.8105771 60.3092638,24.0356692 59.2866226,20.4639922 C62.5642632,18.3689832 66.1359402,16.9679864 69.7854503,16.4188303 L69.7854503,16.4188303 Z M44.4313004,6.00648388 C51.6005987,11.6558736 56.0024959,21.3179949 56.0024959,31.6633183 C56.0024959,42.0086416 51.6092468,51.6707629 44.4313004,57.3201527 C37.2620021,51.6707629 32.8601048,42.0086416 32.8601048,31.6633183 C32.8601048,21.324481 37.2620021,11.6645218 44.4313004,6.00648388 L44.4313004,6.00648388 Z M19.0771505,16.4188303 C22.7266606,16.9679864 26.2983375,18.3862794 29.56733,20.4812885 C28.553337,24.0443173 28.0041808,27.8192253 28.0041808,31.6719664 C28.0041808,40.5903486 30.9186,49.0763244 35.9172182,55.5386382 C30.2505321,52.9290656 25.1762429,48.3498817 21.7559082,42.4129416 C16.9410628,34.1042525 15.9703104,24.3059232 19.0771505,16.4188303 L19.0771505,16.4188303 Z M33.3854786,60.3275392 C28.5209065,60.3275392 23.5871494,58.9676211 19.1376874,56.3904789 C11.8905559,52.2026228 6.86599345,45.268986 5.69201004,37.9721278 C8.23455974,37.0078615 11.0538495,36.4932979 13.9596206,36.4760016 C14.8049751,39.3471802 15.9962548,42.168632 17.5399457,44.8387416 C21.5872697,51.8566977 27.6669038,57.2855601 34.490277,60.2670023 C34.1184075,60.2929467 33.7551861,60.3275392 33.3854786,60.3275392 L33.3854786,60.3275392 Z M69.7249134,56.3904789 C65.2668033,58.9676211 60.3416943,60.3275392 55.4771222,60.3275392 C55.1074147,60.3275392 54.7441933,60.3015949 54.3809719,60.2842986 C61.2043451,57.2942083 67.2839792,51.8653458 71.3291412,44.8538758 C72.8749941,42.1772801 74.0662738,39.3644764 74.9116283,36.4932979 C77.8087512,36.5105941 80.6366892,37.0165096 83.1705907,37.9894241 C82.0052555,45.268986 76.9720448,52.2026228 69.7249134,56.3904789 L69.7249134,56.3904789 Z" id="icon-pom"></path>
                </g>
            </g>
        </g>
    </g>
</svg>