<?xml version="1.0" encoding="UTF-8" standalone="no"?>
<svg width="53px" height="63px" viewBox="0 0 53 63" version="1.1" xmlns="http://www.w3.org/2000/svg" xmlns:xlink="http://www.w3.org/1999/xlink" xmlns:sketch="http://www.bohemiancoding.com/sketch/ns">
    <!-- Generator: Sketch 3.4.4 (17249) - http://www.bohemiancoding.com/sketch -->
    <title>icon-sin</title>
    <desc>Created with Sketch.</desc>
    <defs>
        <linearGradient x1="56.6197917%" y1="77.1484375%" x2="6.8944317%" y2="1.40993936%" id="linearGradient-1">
            <stop stop-color="#94A1B7" offset="0%"></stop>
            <stop stop-color="#B9C5D4" offset="100%"></stop>
        </linearGradient>
    </defs>
    <g id="Website" stroke="none" stroke-width="1" fill="none" fill-rule="evenodd" sketch:type="MSPage">
        <g id="Homepage-Copy-3" sketch:type="MSArtboardGroup" transform="translate(-68.000000, -2394.000000)" fill="url(#linearGradient-1)">
            <g id="features" sketch:type="MSLayerGroup" transform="translate(-25.000000, 1588.000000)">
                <g id="Safety-In-Numbers.-+-Every-card-ejected-b-+-Fill-2-+-Fill-11" transform="translate(91.000000, 806.000000)" sketch:type="MSShapeGroup">
                    <g id="Fill-2-+-Fill-11" transform="translate(2.000000, 0.000000)">
                        <g id="icon-sin">
                            <path d="M26.3893646,0.010298297 C25.9009237,0.010298297 25.4541631,0.264287545 25.1845438,0.666762816 C18.7280068,6.00314205 10.5560656,7.78497432 4.08389852,7.88135998 C3.38705622,7.88135998 2.78138955,8.36459081 2.63941608,9.045803 C2.63941608,9.045803 1.17409349,15.6404059 0.436873414,23.6130633 C-0.296439134,31.5857207 -0.448832683,40.927315 2.77227199,46.956629 C5.18842612,51.4750326 10.902533,55.10252 16.0005531,57.8651416 C20.716938,60.4193616 24.6088348,61.9654398 25.2197115,62.2103115 C25.4945409,62.4239229 25.8410083,62.5307287 26.1913832,62.5150986 C26.5482707,62.5359387 26.8986456,62.4239229 27.173475,62.2051014 L27.178685,62.2051014 C27.8143094,61.9550197 31.6866685,60.4193616 36.3874234,57.8755616 C41.4906535,55.1116376 47.1943403,51.4789401 49.6117969,46.967049 C52.8368091,40.937735 52.6844156,31.5961407 51.9471955,23.6234833 C51.213883,15.650826 49.7485604,9.05622307 49.7485604,9.05622307 C49.6065869,8.36459081 48.9800801,7.87093991 48.2623976,7.89178005 L48.1412643,7.89178005 C38.8192076,7.8553098 30.6329388,4.7318933 27.7739316,0.961129842 C27.5603201,0.381513352 27.0002413,-0.00533181059 26.375037,0.00508826115 L26.3893646,0.010298297 Z M26.3646169,3.81101946 C30.4597051,8.13013919 38.3216492,10.5619234 47.0979546,10.7755349 C47.3923217,12.165312 48.4160937,17.1356862 49.036088,23.8878927 C49.7537704,31.6573587 49.6013769,40.7749214 47.0263166,45.5981121 C45.261417,48.9051824 39.9081051,52.6498957 34.9885288,55.3161315 C30.5365531,57.7270756 26.9246958,59.1728606 26.1965932,59.4620176 C25.4737008,59.1780706 21.8566334,57.7270756 17.4046577,55.3161315 C12.4902914,52.6551057 7.13697954,48.9051824 5.36686985,45.5981121 C2.79180962,40.7801315 2.63941608,31.6573587 3.35709852,23.8878927 C3.97709278,17.1408962 5.00086483,12.175732 5.29523186,10.7807449 C14.2252333,10.5671335 22.2083108,8.14055927 26.3594069,3.8162295 L26.3646169,3.81101946 Z" id="Fill-2"></path>
                            <path d="M23.4707637,38.9889935 L17.1933594,32.706547 L20.5312242,29.3686822 L23.4707637,32.3031797 L32.5553527,23.2236328 L35.894478,26.5614976 L23.4707637,38.9889935 Z" id="Fill-11"></path>
                        </g>
                    </g>
                </g>
            </g>
        </g>
    </g>
</svg>